<?xml version="1.0" encoding="UTF-8"?><svg id="Layer_1" xmlns="http://www.w3.org/2000/svg" viewBox="0 0 1920 640"><defs><style>.cls-1{fill:#fff;stroke-width:0px;}</style></defs><path class="cls-1" d="m363.66,184.61c1.21,2.89,2.18,5.96,2.28,8.99.17,3.08-.28,6.21-.98,9.18-.85,2.96-2.08,5.77-3.69,8.39-1.71,2.55-3.63,4.97-5.91,7.09-4.49,4.29-9.86,7.73-15.51,10.6-11.42,5.59-23.89,9.26-36.54,11.64-12.66,2.42-25.6,3.72-38.45,3.7-12.87.03-25.79-1.26-38.42-3.78-.18-.03-.36-.08-.54-.11v7.34c12.81,2.72,25.86,4.06,38.95,4.17,13.43-.09,26.77-1.49,39.89-4.2,13.05-2.87,26.05-6.79,37.96-13.37,5.9-3.35,11.63-7.24,16.37-12.33,2.39-2.51,4.44-5.38,6.2-8.4,1.67-3.09,2.91-6.41,3.65-9.83.56-3.46.79-6.93.34-10.41-.42-3.53-1.7-6.78-3.31-9.79-3.32-6.01-8.3-10.72-13.71-14.48l-.35.45c4.91,4.31,9.21,9.37,11.79,15.16Z"/><path class="cls-1" d="m305.72,162.48c1.79,2.18,2.77,4.71,2.87,7.27h5.09c-.08-.61-.18-1.21-.26-1.81-.29-1.05-.68-2.07-1.05-3.08-.54-.92-1.02-1.89-1.62-2.74-.68-.79-1.26-1.68-2.02-2.35-2.94-2.84-6.4-4.74-9.93-6.13-3.55-1.39-7.21-2.28-10.93-2.73l-.11.56c3.48,1.16,6.84,2.67,9.94,4.46,3.08,1.8,5.97,3.93,8.02,6.55Z"/><path class="cls-1" d="m191.36,184.23c-.45-2.42-.42-4.97.04-7.5.88-4.92,3.7-9.44,7.32-13.24,3.69-3.77,8.12-6.93,12.81-9.63l-.17-.36c-5.05,2.05-9.95,4.66-14.25,8.26-4.26,3.59-7.89,8.36-9.49,14.08-.72,2.71-.99,5.52-.76,8.39h4.51Z"/><path class="cls-1" d="m424.76,346.97c-4.73,6.96-10.81,12.9-17.48,17.99-7.87,6.15-16.59,11.08-25.72,15.2v5.83c10.07-4.83,19.7-10.6,28.28-17.89,6.6-5.72,12.54-12.29,17-19.82,4.46-7.46,7.47-16.04,7.24-24.75h-.57c-.26,4.24-1.24,8.41-2.84,12.31-1.57,3.91-3.47,7.69-5.9,11.13Z"/><path class="cls-1" d="m377.14,282.13l-2.63,1.49c-1.76.97-3.46,2.04-5.27,2.93-3.64,1.74-7.21,3.58-11,5-6.24,2.64-12.72,4.66-19.25,6.53v7s0,0,.01,0c7.37-2.16,14.62-4.75,21.64-7.93,7.68-3.37,15.08-7.46,21.94-12.36,6.87-4.86,13.26-10.54,18.42-17.29,5.12-6.73,9.15-14.48,10.57-22.93,1.22-8.63-1.47-17.06-5.57-24.18l-.51.26c3.41,7.39,5.22,15.73,3.58,23.46-1.87,7.74-6.02,14.82-11.22,20.83-5.16,6.1-11.45,11.22-18.21,15.53l-2.51,1.65Z"/><path class="cls-1" d="m399.13,304.86c-1.6,1.25-3.27,2.42-4.9,3.63l-5.12,3.32c-1.76,1-3.48,2.04-5.26,3.01l-5.57,2.55c-3.39,1.63-6.95,2.99-10.44,4.45v6.01c4.28-1.81,8.52-3.74,12.67-5.89l5.62-2.91c1.82-1.1,3.6-2.29,5.4-3.43l5.17-3.7c1.64-1.35,3.33-2.62,4.92-4.03,6.3-5.65,12.1-12.02,16.18-19.47,4.18-7.34,6.74-15.74,6.43-24.13h-.4c-.46,8.28-3.6,16.13-8.07,22.9-4.41,6.86-10.28,12.66-16.64,17.7Z"/><path class="cls-1" d="m347.9,466.13c-1.94.93-3.97,1.69-5.94,2.54l-6.07,2.21c-8.13,2.83-16.52,4.8-24.95,6.41-16.88,3.14-34.11,4.37-51.32,4.16-17.19-.06-34.33-1.9-51.09-5.59-8.33-2.02-16.61-4.4-24.62-7.56-8.01-3.14-15.88-6.87-23.04-11.81l-.27.29c6.26,6.25,13.88,10.94,21.7,15.07,7.9,4.02,16.21,7.23,24.71,9.8,17.06,4.96,34.85,7.19,52.55,7.41,4.43.09,8.85-.19,13.27-.27,4.42-.19,8.84-.59,13.25-.94,8.79-1.14,17.59-2.3,26.18-4.61,8.61-2.13,17.08-4.91,25.15-8.6,4-1.93,7.97-3.9,11.71-6.28,3.77-2.33,7.37-4.91,10.55-8.02l-.38-.43c-3.56,2.45-7.45,4.43-11.37,6.21Z"/><path class="cls-1" d="m151.07,245.7v-6.52c-2.73-2.69-5.21-5.59-7.23-8.79-3.83-5.9-5.6-13.19-5.24-20.35.37-7.2,3.27-14.25,7.62-20.25l-.31-.25c-4.96,5.57-8.69,12.57-9.67,20.27-.99,7.64.43,15.66,4.24,22.56,2.8,5.05,6.5,9.42,10.59,13.34Z"/><path class="cls-1" d="m374.62,430.2c-10.65,5.23-21.99,8.95-33.53,11.75v6.15c12.29-3.39,24.32-7.99,35.44-14.32,12-6.74,22.66-16.06,30.33-27.33l-.46-.34c-8.87,10.22-19.71,18.4-31.78,24.1Z"/><path class="cls-1" d="m348.72,453.28c-5.01,1.84-10.21,3.13-15.34,4.57-5.23,1.11-10.37,2.52-15.66,3.33-10.49,1.95-21.1,3.25-31.74,4-10.64.84-21.32.97-31.97.7-21.33-.66-42.48-3.59-63.05-9.41-10.24-2.94-20.37-6.38-30-10.99-9.66-4.51-18.88-10.12-26.8-17.47l-.3.27c6.83,8.51,15.83,15.16,25.28,20.65,9.51,5.48,19.67,9.77,30.05,13.25,10.36,3.58,21.05,6.08,31.87,8.02l8.13,1.28,8.18.87c2.72.34,5.46.51,8.19.66,2.74.15,5.47.37,8.21.47,21.89.47,43.88-1.25,65.2-6.35,5.35-1.14,10.6-2.77,15.85-4.29,5.16-1.85,10.37-3.53,15.37-5.8,10-4.4,19.75-9.66,28-16.8l-.34-.46c-9.12,5.8-19,10.06-29.12,13.47Z"/><path class="cls-1" d="m122.5,395.97c6.34,5.1,13.25,9.41,20.38,13.28,1.38.68,2.76,1.37,4.14,2.05v-5.79c-.62-.27-1.25-.55-1.88-.82-7.06-3.39-13.91-7.24-20.27-11.82-12.67-9.1-23.44-21.44-28.69-36.55l-.38.11c1.87,7.81,5.44,15.2,10.05,21.86,4.63,6.66,10.38,12.52,16.65,17.68Z"/><path class="cls-1" d="m96.87,308.08c3.22,8.31,8.77,15.61,15.32,21.63,6.62,5.86,13.69,11.06,21.1,15.83,7.5,4.58,15.18,8.97,23.26,12.47,16.03,7.37,33.08,12.29,50.34,15.61,17.3,3.25,34.86,4.66,52.39,5.03,15.66.3,31.25-.67,46.87-2.25v-7.34c-15.48,1.43-31.16,2.38-46.76,1.98-34.28-.43-68.8-5.41-100.5-18.44-7.98-3.1-15.57-7.08-23.05-11.25-7.37-4.34-14.47-9.23-21.11-14.58-6.54-5.31-12.21-11.86-15.76-19.59-3.59-7.69-5.13-16.37-4.49-25.01l-.4-.05c-.65,4.31-.86,8.72-.4,13.11.48,4.38,1.56,8.71,3.18,12.85Z"/><path class="cls-1" d="m287.82,401.94v7.49c-8.49.49-16.98.65-25.45.52-6.94-.16-13.88-.54-20.82-1.12v-7.49c6.97.57,13.99.9,20.99,1.01,8.44.19,16.88.05,25.29-.41Z"/><path class="cls-1" d="m164.42,184.01c2.33-5.89,6.59-11.04,11.43-15.43l-.25-.31c-5.33,3.84-10.27,8.61-13.35,14.77-3.06,5.91-3.63,13.13-1.9,19.66-1.08.95-1.77,2.33-1.77,3.88,0,2.87,2.33,5.2,5.2,5.2s5.2-2.33,5.2-5.2-2.22-5.07-4.99-5.18c-1.89-5.6-1.84-11.77.43-17.39Z"/><path class="cls-1" d="m158.59,280.84c-1.32,0-2.51.51-3.43,1.32-2.82-1.65-5.67-3.27-8.28-5.22-1.64-1.16-3.33-2.26-4.93-3.49l-4.62-3.87c-1.59-1.25-3.02-2.65-4.43-4.07-1.48-1.36-2.72-2.92-4.05-4.41-1.33-1.49-2.43-3.15-3.62-4.75-1.01-1.7-2.17-3.34-2.98-5.15-1.82-3.53-3.1-7.34-3.69-11.27-1.28-7.88.33-16.18,3.95-23.53l-.35-.19c-4.3,7.03-6.75,15.49-5.96,24,.31,4.25,1.47,8.42,3.18,12.32.76,2,1.87,3.82,2.86,5.71,1.15,1.77,2.25,3.62,3.55,5.28,1.31,1.66,2.58,3.38,4.05,4.89,1.41,1.58,2.86,3.12,4.45,4.5l4.65,4.28c1.61,1.35,3.31,2.58,4.97,3.88,3.06,2.54,6.47,4.53,9.8,6.67.71,2.03,2.62,3.5,4.89,3.5,2.87,0,5.2-2.33,5.2-5.2s-2.33-5.2-5.2-5.2Z"/><path class="cls-1" d="m243.01,151c-3.71.45-7.37,1.33-10.91,2.72-3.53,1.38-6.98,3.28-9.91,6.1-1.79,1.71-3.22,3.97-4.11,6.45-2,.72-3.44,2.62-3.44,4.87,0,2.87,2.33,5.2,5.2,5.2s5.2-2.33,5.2-5.2c0-1.8-.91-3.38-2.3-4.31.47-1.55,1.23-3.04,2.35-4.4,2.05-2.63,4.95-4.76,8.04-6.57,3.11-1.8,6.47-3.3,9.96-4.47l-.08-.39Z"/><path class="cls-1" d="m342.45,178.87c-.14-1.03-.32-2.05-.59-3.05-1.6-5.74-5.25-10.52-9.51-14.12-4.31-3.6-9.22-6.22-14.27-8.27l-.25.52c4.69,2.7,9.12,5.84,12.8,9.61,3.62,3.79,6.43,8.3,7.31,13.2.12.65.18,1.3.24,1.95-1.9.78-3.23,2.63-3.23,4.81,0,2.87,2.33,5.2,5.2,5.2s5.2-2.33,5.2-5.2c0-2.04-1.18-3.78-2.89-4.63Z"/><path class="cls-1" d="m160.59,381.2c-1.43,0-2.73.58-3.67,1.52-2.17-.8-4.33-1.6-6.51-2.39-1.96-.78-3.88-1.66-5.82-2.48l-2.91-1.26-2.82-1.42c-7.58-3.67-14.81-8.08-21.34-13.36-13.27-10.2-23.47-24.96-26.14-41.97l-.4.04c.54,8.6,3.22,17.1,7.52,24.68,4.21,7.66,9.98,14.4,16.5,20.22,6.55,5.81,13.91,10.64,21.59,14.75l2.87,1.58,2.94,1.41c1.97.93,3.92,1.91,5.91,2.79,2.49,1.02,4.98,2.07,7.48,3.1.79,1.87,2.64,3.18,4.79,3.18,2.87,0,5.2-2.33,5.2-5.2s-2.33-5.2-5.2-5.2Z"/><path class="cls-1" d="m169.45,431.41c-1.54,0-2.9.68-3.85,1.73-8.48-3.18-16.73-6.94-24.5-11.59-11.47-6.76-22-15.46-29.75-26.58l-.34.21c6.46,12.07,16.7,21.87,27.98,29.66,8.04,5.51,16.71,10,25.68,13.79.79,1.87,2.64,3.18,4.79,3.18,2.87,0,5.2-2.33,5.2-5.2s-2.33-5.2-5.2-5.2Z"/><path class="cls-1" d="m432.3,292.08h-.57c-.23,8.65-2.91,17.05-7.57,24.15-2.28,3.58-4.97,6.89-7.98,9.89-2.97,3.03-6.2,5.81-9.63,8.34-6.7,5.07-13.97,9.32-21.54,13-1.19-1.35-2.9-2.21-4.84-2.21-3.58,0-6.47,2.9-6.47,6.47s2.9,6.47,6.47,6.47c3.36,0,6.09-2.57,6.41-5.85,7.93-4.18,15.53-8.99,22.5-14.72,3.4-2.84,6.59-5.94,9.49-9.3,2.94-3.32,5.54-6.96,7.7-10.84,2.16-3.87,3.92-7.99,4.92-12.31,1-4.31,1.36-8.73,1.12-13.1Z"/><path class="cls-1" d="m427.1,362.49c-3.04,7.34-7.54,13.95-12.88,19.7-5.31,5.79-11.44,10.77-17.99,15.08-7.21,4.79-14.92,8.76-22.88,12.19-1.19-1.33-2.89-2.19-4.82-2.19-3.58,0-6.47,2.9-6.47,6.47s2.9,6.47,6.47,6.47c3.29,0,5.98-2.46,6.39-5.64,8.28-3.95,16.25-8.52,23.65-13.99,6.48-4.87,12.54-10.37,17.58-16.74,5.09-6.29,9.14-13.48,11.49-21.16l-.54-.19Z"/><path class="cls-1" d="m392.9,215.78c-.66-7.79-4.41-14.78-8.93-20.68l-.47.33c1.9,3.19,3.72,6.42,4.84,9.9,1.28,3.42,1.96,7.02,2.02,10.59.12,3.57-.47,7.12-1.66,10.45-1.13,3.35-2.85,6.49-4.99,9.33-4.13,5.8-9.76,10.48-15.75,14.49-6.02,4-12.52,7.33-19.26,10.1-13.5,5.51-27.75,9.28-42.23,11.55-8.44,1.4-16.96,2.27-25.51,2.75-1.27-2.85-4.11-4.84-7.43-4.84-4.49,0-8.14,3.64-8.14,8.14s3.64,8.14,8.14,8.14c2.93,0,5.48-1.57,6.91-3.89,9.13-.53,18.23-1.51,27.25-3.13,14.87-2.73,29.6-6.75,43.44-13.12,6.91-3.17,13.65-6.84,19.82-11.42,6.12-4.58,11.92-9.88,16.11-16.48,2.12-3.26,3.8-6.85,4.81-10.64,1.06-3.76,1.48-7.73,1.02-11.58Z"/><path class="cls-1" d="m264.51,335.26c-3.04,0-5.66,1.69-7.06,4.16-16.05-.55-32.04-2.5-47.8-5.58-16.09-3.15-31.94-7.64-47.16-13.67-15.12-6.14-29.92-13.66-41.55-25.03-5.76-5.66-10.7-12.24-13.72-19.76-3.03-7.49-4.01-15.86-2.73-24.03l-.56-.12c-2.05,8.11-1.78,16.9.9,25.02,2.62,8.15,7.51,15.41,13.2,21.72,5.8,6.23,12.53,11.58,19.69,16.11,7.15,4.55,14.72,8.34,22.43,11.73,30.68,13.27,63.88,19.81,97.14,21.25,1.34,2.65,4.06,4.49,7.24,4.49,4.49,0,8.14-3.64,8.14-8.14s-3.64-8.14-8.14-8.14Z"/><path class="cls-1" d="m630.65,306.74l-42.33-12.98c-4.14-1.31-7.39-2.49-9.73-3.52-2.36-1.03-4.66-2.73-6.92-5.08-2.26-2.35-3.38-5.12-3.38-8.33,0-6.02,2.96-10.53,8.89-13.54,5.92-3.01,11.99-4.52,18.2-4.52,7.52,0,14.96,1.55,22.29,4.65,7.34,3.11,13.36,7.48,18.06,13.12l32.73-27.09c-16.18-20.88-40.73-31.32-73.65-31.32-19.38,0-36.73,5.6-52.06,16.79-15.34,11.2-23,25.92-23,44.16,0,13.36,4.04,24.6,12.13,33.72,8.09,9.12,18.53,15.85,31.32,20.17l39.79,12.42c7.71,2.45,13.59,5.04,17.64,7.76,4.04,2.73,6.07,6.16,6.07,10.3,0,5.64-2.87,9.97-8.61,12.98-5.74,3.01-12.93,4.52-21.59,4.52s-18.63-2.63-28.78-7.9c-10.16-5.26-17.97-11.48-23.42-18.63l-29.91,28.22c8.09,12.61,19.51,22.29,34.28,29.07,14.77,6.77,30.15,10.16,46.14,10.16,23.32,0,42.65-6.25,57.99-18.77,15.33-12.51,23-27.6,23-45.29,0-11.85-3.91-22.15-11.71-30.9-7.81-8.75-18.95-15.47-33.44-20.18"/><path class="cls-1" d="m818.31,351.88c-.19,8.66-3.11,15.85-8.75,21.59-5.65,5.74-12.42,8.6-20.32,8.6-6.66,0-12.2-2.39-16.61-7.18-3.95-4.29-5.97-10.03-5.97-15.86v-87.69c0-.87-.7-1.58-1.58-1.58h-36.63c-.87,0-1.58.71-1.58,1.58v98.03c0,14.49,4.89,26.86,14.68,37.11,9.78,10.25,21.63,15.38,35.55,15.38,17.12,0,30.85-7.15,41.2-21.45v17.04c0,.87.71,1.58,1.58,1.58h36.63c.87,0,1.58-.71,1.58-1.58v-146.12c0-.87-.71-1.58-1.58-1.58h-36.63c-.87,0-1.58.71-1.58,1.58v80.54Z"/><path class="cls-1" d="m981.26,272.73c-7.06,3.86-12.84,9.17-17.36,15.94v-17.33c0-.87-.7-1.58-1.58-1.58h-36.63c-.87,0-1.58.71-1.58,1.58v147.7h40.07v-70.83c0-12.26,3.8-22.34,11.42-30.21,7.03-7.27,21.44-11.94,31.52-11.07,1,.09,1.98.2,2.94.34.96.14,1.81-.57,1.81-1.54v-36.9c0-.79-.57-1.46-1.36-1.57-1.63-.22-3.82-.33-6.54-.33-8.09,0-15.66,1.93-22.72,5.78"/><path class="cls-1" d="m1261.49,419.05h36.63c.87,0,1.58-.71,1.58-1.58v-146.12c0-.87-.7-1.58-1.58-1.58h-36.63c-.87,0-1.58.71-1.58,1.58v146.12c0,.87.71,1.58,1.58,1.58"/><path class="cls-1" d="m1435.15,384.05c-5.27,0-9.83-1.7-13.69-5.08-3.86-3.39-5.78-7.43-5.78-12.14v-61.51h28.34c.87,0,1.58-.71,1.58-1.58v-32.4c0-.87-.71-1.58-1.58-1.58h-28.34v-35.39c0-.87-.71-1.58-1.58-1.58h-36.63c-.87,0-1.58.71-1.58,1.58v35.39h-17.61c-.87,0-1.58.71-1.58,1.58v32.4c0,.87.71,1.58,1.58,1.58h17.61v61.51c0,15.24,5.83,28.27,17.49,39.08,11.66,10.82,25.58,16.23,41.77,16.23,8.03,0,16.49-1.87,25.37-5.59.79-.33,1.19-1.26.87-2.06l-12.7-32.4c-.31-.8-1.22-1.19-2.02-.89-5.26,1.9-9.1,2.85-11.51,2.85"/><path class="cls-1" d="m1569.75,266.67c-21.07,0-39.04,7.58-53.9,22.72-14.86,15.14-22.29,33.44-22.29,54.88s7.76,39.74,23.28,54.89c15.52,15.15,34,22.71,55.45,22.71,13.92,0,26.62-2.86,38.09-8.61,10.91-5.45,19.96-12.91,27.13-22.37.58-.77.33-1.89-.52-2.35l-33.2-18.16c-.73-.4-1.64-.14-2.08.57-6.42,10.24-16.23,15.36-29.42,15.36-8.28,0-15.62-2.63-22.01-7.9-6.4-5.26-10.07-11.95-11.01-20.03h104.2c.77,0,1.44-.54,1.57-1.3.6-3.67.9-7.94.9-12.81,0-21.45-7.43-39.74-22.29-54.88-14.86-15.14-32.83-22.72-53.9-22.72m-30.48,61.8c.94-7.9,4.51-14.25,10.72-19.05,6.21-4.8,13.07-7.19,20.6-7.19,8.28,0,15.56,2.35,21.87,7.05,6.3,4.7,10.02,11.1,11.14,19.19h-64.34Z"/><path class="cls-1" d="m1163.58,269.77c-.87,0-1.58.7-1.58,1.58v4.3c-.35-.19-.7-.39-1.06-.59-11.85-6.35-25.56-9.68-40.1-8.94-38.45,1.96-69.92,33.01-72.35,71.43-2.82,44.51,32.45,81.49,76.35,81.49,13.06,0,25.35-3.28,36.1-9.05.36-.19.7-.39,1.06-.59v11.89c0,8.65-3.67,16.13-11,22.43-7.34,6.3-16.27,9.45-26.81,9.45-12.24,0-21.97-3.96-29.21-11.87-.56-.61-1.49-.72-2.14-.2l-27.93,21.98c-.74.58-.82,1.7-.16,2.37,15.26,15.52,35.08,23.27,59.44,23.27,21.45,0,39.69-6.35,54.74-19.05,15.05-12.7,22.57-27.89,22.57-45.57v-152.78c0-.87-.71-1.58-1.58-1.58h-36.35Zm-38.74,109.86c-20.49,0-37.1-16.61-37.1-37.1s16.61-37.1,37.1-37.1,37.1,16.61,37.1,37.1-16.61,37.1-37.1,37.1"/><path class="cls-1" d="m1303.94,234.08c0,4.13-1.03,7.99-2.84,11.39-4.08,7.6-12.07,12.75-21.3,12.75-13.3,0-24.11-10.81-24.11-24.14,0-9.2,5.15-17.2,12.73-21.25,3.39-1.84,7.26-2.87,11.39-2.87,13.33,0,24.14,10.78,24.14,24.11Z"/><path class="cls-1" d="m1303.94,234.08c0,4.13-1.03,7.99-2.84,11.39-3.39,1.81-7.26,2.84-11.39,2.84-13.33,0-24.14-10.81-24.14-24.11,0-4.1,1.03-7.97,2.84-11.36,3.39-1.84,7.26-2.87,11.39-2.87,13.33,0,24.14,10.78,24.14,24.11Z"/><path class="cls-1" d="m1781.24,376.72c-5.55,3.58-11.71,5.36-18.48,5.36-9.78,0-18.11-3.67-24.97-11-6.87-7.34-10.3-16.18-10.3-26.52s3.43-19.23,10.3-26.67c6.86-7.43,15.19-11.15,24.97-11.15,6.77,0,12.93,1.79,18.48,5.36,5.09,3.28,9.12,7.6,12.08,12.95.43.78,1.4,1.07,2.17.63l33.05-19.26c.76-.44,1.02-1.43.57-2.19-6.7-11.2-15.79-20.15-27.27-26.83-11.95-6.96-24.98-10.44-39.08-10.44-21.26,0-39.46,7.58-54.6,22.72-15.14,15.14-22.72,33.44-22.72,54.88s7.57,39.51,22.72,54.74c15.14,15.24,33.35,22.86,54.6,22.86,14.11,0,27.13-3.53,39.08-10.58,11.48-6.78,20.57-15.77,27.27-26.98.45-.75.19-1.74-.57-2.19l-33.05-19.25c-.77-.45-1.74-.16-2.17.63-2.96,5.35-6.99,9.66-12.08,12.94"/></svg>